Title:
Rhino Season Aka Fasle Kargadan

Country:
Turkey/Iran, 2012

Language:
Persian, Turkish, English

Subtitle:
English (srt)

Director:
Bahman Ghobadi

Stars:
Behrouz Vossoughi, Monica Bellucci, Yilmaz Erdogan

Synposis:
Sahel, a poet from the shah era, and Mina, daughter of a wealthy family, are in love. Also Mina's driver is in love with her, as the revolution approaches. The driver becomes a high rank revolutionary and with this power incarcerates the couple. Sahel for 30 years and Mina for 10 years. After 10 years Mina is released and asks for the whereabouts of Sahel. She is told that Sahel has died. Meanwhile, the driver proposes her to stay with him. They travel together to Istanbul. After a further 20 years passes, Sahel is released. Then, he begins the search for his old lover. 

Trivia:
Oficial Selection Toronto International Film Festival/2012

Imdb: 
http://www.imdb.com/title/tt1850419/?ref_=fn_al_tt_1

Trailer: 
http://www.kino-zeit.de/filme/trailer/rhino-season


Media Info:

General
Complete name                            : Rhino.Season.2012.DVDRip.XviD.AC3.HORiZON-ArtSubs
Format                                   : AVI
Format/Info                              : Audio Video Interleave
File size                                : 907 MiB
Duration                                 : 1h 27mn
Overall bit rate                         : 1 443 Kbps
Writing application                      : VirtualDubMod 1.5.10.2 (build 2540/release)
Writing library                          : VirtualDubMod build 2540/release

Video
ID                                       : 0
Format                                   : MPEG-4 Visual
Format profile                           : Advanced Simple@L5
Format settings, BVOP                    : 2
Format settings, QPel                    : No
Format settings, GMC                     : No warppoints
Format settings, Matrix                  : Default (MPEG)
Codec ID                                 : XVID
Codec ID/Hint                            : XviD
Duration                                 : 1h 27mn
Bit rate                                 : 1 305 Kbps
Width                                    : 704 pixels
Height                                   : 288 pixels
Display aspect ratio                     : 2.40:1
Frame rate                               : 25.000 fps
Color space                              : YUV
Chroma subsampling                       : 4:2:0
Bit depth                                : 8 bits
Scan type                                : Progressive
Compression mode                         : Lossy
Bits/(Pixel*Frame)                       : 0.257
Stream size                              : 820 MiB (90%)
Writing library                          : XviD 1.2.1 (UTC 2008-12-04)

Audio
ID                                       : 1
Format                                   : MPEG Audio
Format version                           : Version 1
Format profile                           : Layer 3
Mode                                     : Joint stereo
Mode extension                           : MS Stereo
Codec ID                                 : 55
Codec ID/Hint                            : MP3
Duration                                 : 1h 27mn
Bit rate mode                            : Constant
Bit rate                                 : 128 Kbps
Channel(s)                               : 2 channels
Sampling rate                            : 48.0 KHz
Compression mode                         : Lossy
Stream size                              : 80.5 MiB (9%)
Alignment                                : Aligned on interleaves
Interleave, duration                     : 40 ms (1.00 video frame)
Interleave, preload duration             : 504 ms
Writing library                          : LAME3.99r
Encoding settings                        : -m j -V 4 -q 2 -lowpass 17 -b 128

